HIERARCHY
ROOT Hips
{
 OFFSET 0.000000 0.000000 0.000000
 CHANNELS 6 Xposition Yposition Zposition Yrotation Xrotation Zrotation
 JOINT Chest
 {
  OFFSET 0.000000 9.581000 -0.001100
  CHANNELS 3 Yrotation Xrotation Zrotation
  JOINT Chest2
  {
   OFFSET 0.000000 9.561100 0.002200
   CHANNELS 3 Yrotation Xrotation Zrotation
   JOINT Chest3
   {
    OFFSET 0.000000 9.521100 0.000000
    CHANNELS 3 Yrotation Xrotation Zrotation
    JOINT Chest4
    {
     OFFSET 0.000000 9.511400 0.000000
     CHANNELS 3 Yrotation Xrotation Zrotation
     JOINT Neck
     {
      OFFSET 0.000000 14.375100 0.000000
      CHANNELS 3 Yrotation Xrotation Zrotation
      JOINT Head
      {
       OFFSET 0.000000 8.901200 0.004600
       CHANNELS 3 Yrotation Xrotation Zrotation
       End Site
       {
        OFFSET 0.000000 16.962200 0.002400
       }
      }
     }
     JOINT RightCollar
     {
      OFFSET -2.920100 9.518800 0.000000
      CHANNELS 3 Yrotation Xrotation Zrotation
      JOINT RightShoulder
      {
       OFFSET -13.664500 0.000000 0.000000
       CHANNELS 3 Yrotation Xrotation Zrotation
       JOINT RightElbow
       {
        OFFSET 0.000000 -29.999200 0.000000
        CHANNELS 3 Yrotation Xrotation Zrotation
        JOINT RightWrist
        {
         OFFSET 0.000000 -24.253600 0.000000
         CHANNELS 3 Yrotation Xrotation Zrotation
         End Site
         {
          OFFSET 0.000000 -17.918900 0.000000
         }
        }
       }
      }
     }
     JOINT LeftCollar
     {
      OFFSET 2.920100 9.518800 0.000000
      CHANNELS 3 Yrotation Xrotation Zrotation
      JOINT LeftShoulder
      {
       OFFSET 13.664500 0.000000 0.000000
       CHANNELS 3 Yrotation Xrotation Zrotation
       JOINT LeftElbow
       {
        OFFSET 0.000000 -29.999200 0.000000
        CHANNELS 3 Yrotation Xrotation Zrotation
        JOINT LeftWrist
        {
         OFFSET 0.000000 -24.253600 0.000000
         CHANNELS 3 Yrotation Xrotation Zrotation
         End Site
         {
          OFFSET 0.000000 -17.918900 0.000000
         }
        }
       }
      }
     }
    }
   }
  }
 }
 JOINT RightHip
 {
  OFFSET -7.797300 0.005300 0.000500
  CHANNELS 3 Yrotation Xrotation Zrotation
  JOINT RightKnee
  {
   OFFSET 0.000000 -40.663400 -0.000500
   CHANNELS 3 Yrotation Xrotation Zrotation
   JOINT RightAnkle
   {
    OFFSET 0.000000 -39.523700 -0.000900
    CHANNELS 3 Yrotation Xrotation Zrotation
    JOINT RightToe
    {
     OFFSET 0.000000 -6.418000 14.485300
     CHANNELS 3 Yrotation Xrotation Zrotation
     End Site
     {
      OFFSET 0.000000 -1.465200 6.326400
     }
    }
   }
  }
 }
 JOINT LeftHip
 {
  OFFSET 7.797300 0.005300 0.000500
  CHANNELS 3 Yrotation Xrotation Zrotation
  JOINT LeftKnee
  {
   OFFSET 0.000000 -40.663400 -0.000500
   CHANNELS 3 Yrotation Xrotation Zrotation
   JOINT LeftAnkle
   {
    OFFSET 0.000000 -39.523700 -0.000900
    CHANNELS 3 Yrotation Xrotation Zrotation
    JOINT LeftToe
    {
     OFFSET 0.000000 -6.418000 14.485300
     CHANNELS 3 Yrotation Xrotation Zrotation
     End Site
     {
      OFFSET 0.000000 -1.465200 6.326400
     }
    }
   }
  }
 }
}
MOTION
Frames: 16
Frame Time: 0.008333
0.000000 86.422400 0.000000 0.000000 -5.767877 0.000000 0.000000 11.653817 0.000000 0.000000 -5.885947 0.000000 0.000000 -0.000000 0.000000 0.000000 -0.000000 0.000000 0.000000 12.528835 0.000000 0.000000 0.711642 0.000000 0.000000 -0.000000 0.000000 0.000000 0.000000 -90.000000 0.000000 -2.309062 0.000000 0.000000 2.309062 0.000000 0.000000 -0.000000 0.000000 0.000000 -0.000000 90.000000 0.000000 -2.309062 0.000000 0.000000 2.309062 0.000000 0.000000 8.520406 0.000000 0.000000 1.905762 0.000000 -0.000000 -4.658285 0.000000 0.000000 -0.000000 0.000000 0.000000 8.520406 0.000000 0.000000 1.905762 0.000000 -0.000000 -4.658285 0.000000 0.000000 -0.000000 0.000000
-23.497995 126.323485 56.365799 -173.960576 -26.114830 -1.905198 -1.854794 21.971902 0.150903 -0.238696 3.014235 0.045581 -0.413135 4.901317 0.088663 -1.572213 18.617339 0.149215 -1.952715 12.892565 1.491951 -2.385124 -12.160340 1.963934 -4.819125 -9.252674 -4.722002 3.931373 -2.414845 -2.061715 92.316332 -68.058308 -63.452185 3.312272 6.838147 -44.952739 -4.494197 -7.329247 3.472283 2.002721 -4.114062 2.871128 -95.612070 -63.013897 75.459620 -27.771673 10.223564 19.689132 -11.066556 -62.088604 6.837858 -37.191284 69.559781 -36.166636 24.362971 39.600976 11.423308 0.028164 0.008915 0.012480 -11.629683 -50.610283 -5.461572 17.881851 70.286331 8.993652 -0.108027 8.441520 6.281699 0.005703 0.002146 0.002527
-23.493906 126.323532 56.364589 -173.985943 -26.125227 -1.915423 -1.853603 21.990658 0.183342 -0.230360 3.008992 0.043911 -0.411346 4.905606 0.092461 -1.562631 18.624407 0.165182 -1.895909 12.916767 1.445374 -2.304653 -12.147788 1.898370 -4.824705 -9.239679 -4.711269 3.974130 -2.383053 -2.025510 92.416375 -67.959328 -63.674269 3.306150 6.858098 -44.957876 -4.474632 -7.314639 3.451921 1.975297 -4.126296 2.874665 -95.660705 -63.007236 75.515844 -27.751568 10.215079 19.691586 -11.076180 -62.075994 6.851318 -37.176721 69.538665 -36.137668 24.369226 39.651783 11.536240 0.060267 0.022026 0.026711 -11.618455 -50.604096 -5.454376 17.941263 70.282413 9.086747 -0.127063 8.449439 6.254390 0.013855 0.000779 0.006139
-23.488948 126.321503 56.367668 -174.024414 -26.104486 -1.921197 -1.831742 21.988581 0.215558 -0.253694 3.026289 0.065428 -0.394689 4.883293 0.078965 -1.557893 18.633117 0.178838 -1.827018 12.932915 1.396368 -2.221856 -12.149758 1.836368 -4.832858 -9.182855 -4.671416 4.033680 -2.397906 -2.028431 92.502237 -67.874713 -63.895481 3.302926 6.869639 -44.961370 -4.447980 -7.305177 3.426118 1.956947 -4.138374 2.875079 -95.707556 -62.986576 75.572271 -27.713307 10.204075 19.699171 -11.103845 -62.094321 6.891391 -37.275886 69.443703 -36.211257 24.536936 39.770001 11.691230 0.084057 0.001751 0.037244 -11.611954 -50.628120 -5.421966 17.963895 70.284212 9.125837 -0.126446 8.450026 6.246191 0.009670 0.003167 0.004285
-23.486791 126.320554 56.368959 -174.048070 -26.094024 -1.916719 -1.826166 22.003340 0.229598 -0.253716 3.031538 0.067500 -0.397740 4.883668 0.083305 -1.556063 18.670651 0.209693 -1.758666 12.903757 1.335046 -2.138925 -12.162938 1.776457 -4.837883 -9.185601 -4.669438 4.088400 -2.399551 -2.011883 92.592015 -67.808482 -64.119463 3.314568 6.870324 -44.922730 -4.423480 -7.339421 3.390963 1.956020 -4.155704 2.869115 -95.740680 -62.992900 75.616306 -27.697815 10.193781 19.700023 -11.157571 -62.101907 6.917722 -37.305698 69.376420 -36.245421 24.707275 39.854776 11.873232 0.083903 -0.005602 0.037172 -11.607903 -50.643291 -5.411935 17.994454 70.283749 9.161347 -0.121443 8.449893 6.244949 0.002227 0.005607 0.000987
-23.485798 126.320707 56.368623 -174.060613 -26.092656 -1.910010 -1.824067 22.014985 0.232129 -0.263291 3.049545 0.077061 -0.411446 4.934324 0.106407 -1.549390 18.656549 0.209549 -1.723336 12.854347 1.287163 -2.018524 -12.158047 1.703363 -4.843205 -9.192979 -4.673399 4.128792 -2.393284 -1.990428 92.718060 -67.751791 -64.325523 3.316361 6.873220 -44.922621 -4.402232 -7.367524 3.366101 1.969462 -4.172707 2.862843 -95.788168 -63.005076 75.668370 -27.687222 10.184000 19.700015 -11.234110 -62.102648 6.947252 -37.313658 69.324260 -36.273891 24.848055 39.928754 12.054153 0.069541 -0.010504 0.030807 -11.613229 -50.650949 -5.418435 18.044158 70.283405 9.224657 -0.119186 8.445894 6.227254 0.000917 0.009222 0.000407
-23.488207 126.321687 56.367448 -174.069099 -26.098263 -1.884276 -1.834539 22.032577 0.211870 -0.275967 3.064534 0.087497 -0.413549 4.942867 0.109246 -1.556651 18.684181 0.228149 -1.678003 12.808700 1.236272 -1.896569 -12.145825 1.623986 -4.839880 -9.190148 -4.685092 4.148905 -2.390601 -1.977298 92.880133 -67.709309 -64.544749 3.297794 6.874251 -44.955000 -4.373371 -7.411883 3.329769 1.990993 -4.160354 2.864956 -95.869445 -63.015614 75.745335 -27.684787 10.178025 19.699404 -11.378233 -62.103345 6.986987 -37.140304 69.341014 -36.167264 25.011689 39.967304 12.265120 0.018838 0.001094 0.008347 -11.599799 -50.652605 -5.461448 18.024963 70.277401 9.228795 -0.093937 8.454543 6.198351 0.004586 0.005307 0.002032
-23.486418 126.322348 56.367650 -174.086576 -26.093991 -1.877893 -1.867830 22.066309 0.226720 -0.243128 3.038892 0.064780 -0.430695 4.959465 0.119806 -1.567360 18.695854 0.233842 -1.548773 12.843202 1.180427 -1.849040 -12.175404 1.566766 -4.830745 -9.159923 -4.691588 4.143301 -2.391290 -1.975380 93.068798 -67.699685 -64.795903 3.242326 6.869205 -44.982081 -4.336384 -7.429765 3.301162 2.006487 -4.155110 2.863739 -95.931505 -63.022563 75.808874 -27.660436 10.180836 19.704696 -11.460995 -62.114373 7.035243 -37.206338 69.276015 -36.258148 25.217340 40.050738 12.430026 0.018929 -0.000463 0.008387 -11.612040 -50.659432 -5.459371 18.044189 70.272553 9.253121 -0.080202 8.454907 6.192439 0.000428 0.005704 0.000190
-23.485511 126.323472 56.367729 -174.102642 -26.094209 -1.866491 -1.869898 22.072518 0.223936 -0.242086 3.043690 0.066444 -0.444167 4.965371 0.123466 -1.577794 18.703540 0.235790 -1.456699 12.877282 1.128468 -1.764139 -12.172891 1.496465 -4.825038 -9.111524 -4.690755 4.112243 -2.395115 -1.985301 93.258953 -67.751036 -65.048406 3.298149 6.875775 -44.901730 -4.303720 -7.398847 3.297385 2.015866 -4.201166 2.841574 -95.928372 -63.028010 75.820843 -27.639513 10.190697 19.713253 -11.525605 -62.127766 7.066902 -37.248256 69.225376 -36.325533 25.386400 40.137456 12.579167 0.017321 -0.002951 0.007674 -11.612572 -50.660447 -5.465568 18.077534 70.266008 9.285859 -0.088217 8.457199 6.190545 -0.004780 0.005482 -0.002118
-23.484332 126.325320 56.366897 -174.111657 -26.104253 -1.860276 -1.879506 22.086636 0.221232 -0.260260 3.052155 0.073398 -0.421078 4.957280 0.112316 -1.581666 18.705835 0.236023 -1.395410 12.918930 1.090574 -1.666523 -12.155403 1.419715 -4.840980 -9.044542 -4.676240 4.102391 -2.435041 -2.003598 93.345576 -67.827981 -65.171034 3.357373 6.889686 -44.855139 -4.304649 -7.282971 3.349944 2.021719 -4.225548 2.781767 -96.069393 -63.018682 76.026323 -27.641104 10.181199 19.710986 -11.588191 -62.135361 7.094593 -37.209893 69.229418 -36.316287 25.465445 40.195251 12.697285 0.017899 0.006074 0.007931 -11.606137 -50.650139 -5.475526 18.025204 70.262649 9.244838 -0.072240 8.464303 6.181219 -0.002774 0.003724 -0.001229
-23.482855 126.328322 56.363994 -174.124441 -26.132045 -1.855720 -1.908298 22.124052 0.222576 -0.260682 3.059452 0.071851 -0.409793 4.956553 0.106952 -1.594991 18.717059 0.236648 -1.315797 12.938667 1.029827 -1.576797 -12.145133 1.346691 -4.836450 -9.000782 -4.680232 4.020249 -2.428218 -2.029065 93.627795 -67.920746 -65.406087 3.306541 6.863591 -44.859831 -4.276269 -7.280298 3.342067 1.993027 -4.180623 2.769370 -96.172465 -63.000660 76.197470 -27.647502 10.175299 19.713124 -11.604770 -62.118393 7.101796 -37.202579 69.219310 -36.323038 25.515342 40.232434 12.758047 0.020235 0.010958 0.008967 -11.617874 -50.621535 -5.479535 18.035949 70.259184 9.257446 -0.054727 8.462666 6.168877 -0.004650 0.003189 -0.002060
-23.482158 126.328445 56.366889 -174.141567 -26.124860 -1.841605 -1.911271 22.125288 0.216628 -0.261314 3.067022 0.071974 -0.418638 4.960284 0.107558 -1.603683 18.732242 0.235006 -1.238924 12.948179 0.974222 -1.497454 -12.147710 1.279122 -4.833244 -8.983079 -4.681161 3.920182 -2.407105 -2.058588 93.920531 -68.033565 -65.628947 3.288031 6.849569 -44.852916 -4.256049 -7.283049 3.341603 1.958547 -4.147789 2.760220 -96.261348 -62.977858 76.354474 -27.660720 10.172484 19.719395 -11.647611 -62.153764 7.114280 -37.209189 69.172893 -36.347110 25.660283 40.334247 12.862807 0.007367 -0.012270 0.003264 -11.628300 -50.627468 -5.478515 18.042255 70.250842 9.270499 -0.053552 8.462683 6.148917 -0.000611 0.005764 -0.000271
-23.481543 126.330077 56.366233 -174.156845 -26.142282 -1.830673 -1.910628 22.155819 0.211687 -0.264738 3.079823 0.074228 -0.428208 4.999659 0.113308 -1.595893 18.713746 0.230035 -1.179943 12.941487 0.923800 -1.427982 -12.164482 1.218115 -4.862576 -8.958294 -4.671511 3.854314 -2.422545 -2.091969 94.159326 -68.146605 -65.808102 3.290861 6.843875 -44.837847 -4.284166 -7.218226 3.372178 1.954319 -4.188344 2.730114 -96.458200 -62.913418 76.589745 -27.629610 10.213301 19.734922 -11.658547 -62.169473 7.091935 -37.186673 69.159287 -36.330497 25.797426 40.462888 13.051718 0.008986 -0.013424 0.003981 -11.634013 -50.607118 -5.475141 18.067320 70.243514 9.285750 -0.060253 8.461465 6.150627 -0.000527 0.005255 -0.000233
-23.478849 126.332318 56.363656 -174.178569 -26.170241 -1.831182 -1.891528 22.191426 0.221370 -0.267265 3.099899 0.075850 -0.428355 5.013332 0.113751 -1.594983 18.728855 0.231611 -1.130041 12.919750 0.882080 -1.367175 -12.194118 1.164099 -4.911590 -8.922227 -4.652107 3.807752 -2.459379 -2.126086 94.397737 -68.246490 -65.989699 3.295052 6.838791 -44.823783 -4.309942 -7.187710 3.392420 1.938944 -4.201529 2.721725 -96.577156 -62.897649 76.769326 -27.654884 10.218710 19.754219 -11.653156 -62.155390 7.089024 -37.192131 69.135771 -36.336769 25.895550 40.540237 13.179968 0.015145 -0.008405 0.006710 -11.640879 -50.572746 -5.450505 18.074238 70.240853 9.280805 -0.061217 8.459015 6.149272 -0.000402 0.004168 -0.000178
-23.476969 126.332641 56.364151 -174.182201 -26.174553 -1.833652 -1.890228 22.204764 0.225791 -0.270389 3.124295 0.076809 -0.428691 5.026356 0.114098 -1.597508 18.815317 0.237172 -1.091301 12.809341 0.848409 -1.302472 -12.229647 1.105884 -4.947876 -8.978141 -4.638109 3.765378 -2.479005 -2.149813 94.634857 -68.321278 -66.178689 3.297846 6.832667 -44.813307 -4.326590 -7.244023 3.405619 1.925524 -4.203513 2.729066 -96.708388 -62.889468 76.953337 -27.669689 10.223187 19.771311 -11.655271 -62.165327 7.078421 -37.199937 69.118597 -36.345643 25.959702 40.594664 13.287661 0.015133 -0.006642 0.006704 -11.691479 -50.562752 -5.401729 18.103237 70.233938 9.277391 -0.068083 8.456767 6.148450 0.001043 0.006632 0.000462
-23.477430 126.332575 56.364656 -174.186661 -26.175525 -1.822441 -1.893061 22.231982 0.217014 -0.271544 3.115458 0.075538 -0.432302 5.045147 0.114687 -1.593813 18.812826 0.236794 -1.077992 12.781998 0.838663 -1.219157 -12.265403 1.031283 -4.966814 -8.972910 -4.631757 3.731198 -2.474047 -2.163464 94.809817 -68.354221 -66.319516 3.288413 6.821347 -44.810793 -4.346112 -7.195872 3.417751 1.930182 -4.209518 2.741904 -96.983061 -62.861580 77.237801 -27.627478 10.280860 19.766488 -11.584519 -62.200742 6.971005 -37.200968 69.140817 -36.321029 26.050450 40.637233 13.414632 0.003923 -0.010941 0.001738 -11.704467 -50.562058 -5.388035 18.132430 70.235771 9.282270 -0.070631 8.450594 6.152320 0.002319 0.005699 0.001028
